<?xml version="1.0" standalone="no"?>
<!DOCTYPE svg PUBLIC "-//W3C//DTD SVG 20010904//EN"
 "http://www.w3.org/TR/2001/REC-SVG-20010904/DTD/svg10.dtd">
<svg version="1.0" xmlns="http://www.w3.org/2000/svg"
 width="768.000000pt" height="1024.000000pt" viewBox="0 0 768.000000 1024.000000"
 preserveAspectRatio="xMidYMid meet">

<g transform="translate(0.000000,1024.000000) scale(0.100000,-0.100000)"
fill="#000000" stroke="none">
<path d="M679 9054 c-25 -7 -66 -32 -92 -54 -84 -74 -78 47 -75 -1485 3 -1230
5 -1364 20 -1406 25 -70 51 -117 110 -194 64 -84 136 -140 201 -157 30 -7 57
-22 69 -38 l20 -25 -23 -3 c-31 -5 -184 74 -229 118 -19 19 -55 58 -78 85 -42
50 -42 50 -21 10 27 -49 101 -127 154 -164 45 -30 115 -64 225 -111 41 -17 84
-37 95 -44 12 -8 52 -26 90 -41 83 -33 77 -28 69 -49 -10 -27 -94 -20 -198 15
-115 40 -287 123 -345 166 -48 36 -77 43 -67 17 4 -9 1 -23 -6 -31 -10 -13 -8
-19 13 -37 14 -11 35 -37 47 -56 32 -54 79 -94 177 -150 87 -50 246 -120 271
-120 7 0 25 -19 41 -42 16 -24 53 -60 83 -80 70 -47 72 -64 5 -60 -48 2 -75 9
-140 37 -16 7 -70 29 -120 49 -49 20 -114 52 -143 72 -30 19 -56 33 -59 31 -9
-10 28 -55 66 -82 38 -25 309 -139 421 -175 30 -10 93 -34 140 -54 47 -20 103
-42 125 -48 25 -7 174 -14 395 -17 354 -6 355 -6 358 -28 3 -21 -1 -21 -150
-28 -238 -11 -615 -9 -703 3 -178 23 -279 62 -434 163 -41 27 -76 47 -78 45
-9 -9 17 -43 49 -67 54 -40 170 -107 208 -120 44 -15 70 -37 70 -60 0 -45 115
-137 205 -165 99 -31 189 -39 685 -64 285 -14 417 -25 510 -44 47 -9 111 -22
143 -28 59 -11 76 -32 33 -40 -13 -3 -107 1 -207 8 -145 10 -269 11 -582 2
-296 -8 -405 -7 -424 1 -13 6 -29 9 -34 5 -16 -10 21 -43 60 -54 21 -6 210
-10 464 -10 236 0 447 -4 470 -9 23 -6 77 -16 121 -23 91 -14 108 -24 100 -55
l-6 -23 -387 0 c-308 0 -391 3 -406 13 -11 8 -33 22 -49 33 l-29 18 12 -21
c15 -30 69 -68 111 -81 19 -6 152 -13 295 -16 235 -6 369 -16 383 -31 3 -3 0
-16 -6 -29 -14 -32 -54 -40 -209 -41 l-122 0 -44 43 c-41 41 -57 45 -57 15 0
-19 75 -98 119 -125 28 -18 56 -24 126 -28 l90 -5 -2 -33 c0 -19 -10 -43 -20
-55 -11 -12 -27 -38 -36 -58 -9 -20 -23 -42 -32 -49 -8 -7 -15 -18 -15 -25 0
-6 -9 -20 -20 -30 -11 -10 -20 -22 -20 -26 0 -17 -92 -129 -106 -129 -8 0 -14
-4 -14 -8 0 -5 -12 -15 -27 -22 -32 -16 -413 -390 -413 -405 0 -5 -13 -24 -28
-40 -16 -17 -31 -36 -33 -42 -2 -7 -34 -42 -70 -80 -36 -37 -68 -73 -70 -80
-2 -6 -24 -33 -49 -60 -25 -26 -51 -60 -59 -75 -8 -16 -18 -28 -23 -28 -4 0
-8 -6 -8 -12 0 -7 -12 -26 -28 -43 -15 -16 -33 -42 -41 -57 -8 -16 -18 -28
-23 -28 -4 0 -8 -6 -8 -12 -1 -7 -14 -29 -30 -48 -17 -19 -30 -40 -30 -47 0
-7 -4 -13 -10 -13 -5 0 -10 -6 -10 -13 0 -7 -8 -22 -17 -33 -10 -10 -24 -31
-32 -46 -8 -16 -18 -28 -23 -28 -4 0 -8 -9 -8 -20 0 -11 -4 -20 -10 -20 -5 0
-10 -6 -10 -13 0 -18 -24 -67 -32 -67 -5 0 -8 -9 -8 -19 0 -11 -5 -23 -10 -26
-13 -8 -13 -51 1 -78 6 -12 30 -41 52 -64 62 -64 76 -61 201 52 59 53 106 89
106 81 0 -8 -16 -28 -35 -43 -19 -15 -35 -32 -35 -36 0 -10 -26 -37 -35 -37
-9 0 -51 -42 -61 -62 -5 -9 -25 -34 -44 -55 -19 -21 -46 -59 -59 -85 -13 -27
-28 -48 -33 -48 -4 0 -8 -9 -8 -20 0 -11 -4 -20 -10 -20 -5 0 -10 -6 -10 -13
0 -7 -8 -22 -17 -33 -17 -19 -24 -31 -55 -86 -7 -13 -15 -25 -18 -28 -10 -10
-41 -65 -47 -83 -3 -9 -9 -17 -14 -17 -5 0 -9 -6 -9 -13 0 -7 -9 -23 -20 -35
-11 -12 -20 -28 -20 -37 0 -8 -4 -15 -10 -15 -5 0 -10 -6 -10 -13 0 -7 -9 -23
-20 -35 -11 -12 -20 -27 -20 -35 0 -7 -5 -18 -12 -25 -6 -6 -12 -40 -12 -75
-1 -55 3 -68 27 -101 34 -44 85 -71 119 -63 13 4 49 34 79 67 30 34 149 159
265 278 136 140 215 229 223 252 32 89 184 402 312 645 54 103 89 182 89 200
0 62 29 69 65 15 11 -17 44 -42 72 -56 60 -30 66 -28 138 42 21 21 32 30 22
18 -9 -11 -17 -26 -17 -32 0 -7 -28 -43 -62 -80 -35 -38 -70 -82 -77 -98 -8
-16 -34 -49 -57 -74 -23 -25 -52 -64 -64 -88 -12 -23 -26 -45 -31 -48 -5 -3
-18 -24 -28 -47 -11 -23 -31 -53 -45 -66 -14 -14 -26 -30 -26 -36 0 -7 -9 -20
-20 -30 -11 -10 -20 -24 -20 -30 0 -7 -7 -18 -15 -25 -9 -7 -25 -32 -35 -55
-10 -23 -26 -48 -35 -55 -8 -7 -15 -18 -15 -25 0 -6 -9 -20 -20 -30 -11 -10
-20 -24 -20 -30 0 -7 -7 -18 -15 -25 -26 -22 -85 -157 -85 -195 0 -27 8 -44
29 -66 50 -49 97 -36 185 52 32 32 63 59 68 59 9 0 -27 -52 -72 -103 -14 -16
-27 -35 -30 -42 -3 -8 -40 -49 -82 -93 -43 -44 -78 -83 -78 -88 0 -5 -14 -23
-30 -41 -17 -18 -30 -36 -30 -40 0 -4 -18 -26 -40 -48 -21 -22 -39 -44 -40
-50 0 -5 -18 -28 -40 -50 -21 -22 -39 -45 -40 -50 0 -14 -372 -385 -385 -385
-6 0 -47 -38 -93 -84 -72 -74 -82 -89 -82 -121 0 -82 50 -125 148 -125 49 0
73 7 148 44 78 38 102 57 194 152 58 60 116 128 130 152 14 24 35 58 47 75 13
18 31 45 40 61 10 15 28 42 40 60 43 60 98 145 128 196 32 54 117 190 150 239
88 131 286 420 330 481 104 144 155 225 155 248 0 35 15 56 62 87 24 16 69 54
101 84 95 88 95 63 -6 -244 -36 -110 -71 -220 -77 -245 -6 -25 -16 -59 -21
-76 -5 -17 -9 -41 -9 -53 0 -32 52 -81 86 -81 29 0 77 46 398 384 108 114 196
188 196 165 0 -7 -49 -60 -110 -119 -60 -59 -110 -112 -110 -117 0 -5 -23 -31
-50 -58 -28 -27 -50 -54 -50 -61 0 -6 -9 -19 -20 -29 -11 -10 -20 -23 -20 -30
0 -7 -9 -20 -20 -30 -11 -10 -20 -23 -20 -30 0 -6 -13 -24 -30 -40 -16 -16
-30 -34 -30 -40 0 -7 -9 -20 -20 -30 -11 -10 -20 -23 -20 -30 0 -6 -12 -22
-26 -36 -14 -13 -34 -42 -44 -64 -10 -22 -30 -51 -44 -64 -14 -14 -26 -30 -26
-37 0 -6 -7 -17 -15 -24 -9 -7 -25 -32 -35 -54 -10 -23 -29 -52 -42 -66 -13
-14 -31 -41 -41 -61 -9 -20 -23 -42 -32 -49 -8 -7 -15 -18 -15 -25 0 -6 -9
-20 -20 -30 -11 -10 -20 -24 -20 -30 0 -7 -7 -18 -15 -25 -9 -7 -23 -28 -31
-46 -9 -19 -20 -34 -25 -34 -5 0 -9 -6 -9 -13 0 -7 -8 -22 -18 -33 -9 -10 -28
-40 -41 -67 -13 -26 -28 -47 -33 -47 -4 0 -8 -6 -8 -13 0 -7 -9 -23 -20 -35
-11 -12 -20 -25 -20 -29 0 -4 -14 -22 -30 -40 -17 -18 -30 -36 -30 -40 0 -4
-14 -22 -30 -40 -17 -18 -30 -36 -30 -41 0 -5 -12 -19 -26 -33 -26 -24 -54
-79 -54 -106 0 -8 13 -28 29 -44 25 -24 37 -29 81 -29 28 0 65 6 83 14 40 17
132 112 142 146 7 23 45 91 100 180 44 70 65 106 99 171 19 36 42 71 51 79 9
8 27 34 41 59 13 25 37 64 54 86 16 22 38 53 48 69 9 15 36 56 59 90 24 33 51
74 60 90 10 15 28 42 40 60 12 17 42 60 67 96 24 36 52 72 61 80 10 8 28 31
41 50 13 19 40 55 59 80 81 106 187 272 234 370 50 102 51 104 45 56 -3 -27
-13 -64 -21 -82 -14 -28 -14 -37 -3 -64 18 -43 64 -70 120 -70 49 0 41 -7 375
346 61 64 119 119 130 124 17 6 24 0 46 -43 20 -42 35 -57 78 -79 103 -54 206
-28 396 97 44 29 96 70 115 90 19 20 51 50 71 66 l36 28 -7 -40 c-4 -22 -16
-50 -27 -62 -11 -12 -32 -48 -47 -79 -15 -32 -32 -60 -37 -63 -5 -4 -18 -26
-29 -50 -11 -24 -24 -46 -30 -50 -5 -3 -23 -35 -40 -70 -17 -35 -35 -67 -40
-70 -6 -4 -19 -25 -30 -49 -10 -23 -26 -49 -35 -56 -8 -7 -15 -18 -15 -24 0
-7 -12 -23 -26 -37 -14 -13 -34 -42 -44 -64 -10 -22 -30 -51 -44 -64 -14 -14
-26 -30 -26 -36 0 -7 -9 -20 -20 -30 -11 -10 -20 -23 -20 -30 0 -7 -9 -20 -20
-30 -11 -10 -20 -23 -20 -30 0 -6 -13 -24 -30 -40 -16 -16 -30 -34 -30 -40 0
-6 -18 -29 -40 -50 -22 -21 -40 -44 -40 -50 0 -13 -112 -125 -126 -125 -16 0
-144 -134 -144 -151 0 -22 31 -48 66 -54 48 -10 238 92 366 197 63 51 349 340
391 394 20 27 50 65 65 84 25 31 62 85 127 181 11 16 44 66 73 111 29 45 61
91 71 102 10 12 33 48 51 81 53 101 86 155 105 173 17 16 17 16 11 -13 -4 -16
-10 -71 -13 -122 l-5 -92 30 -31 c73 -73 123 -29 247 221 52 102 110 229 130
280 21 52 45 110 55 129 17 35 109 302 130 379 6 22 20 45 31 51 17 10 22 6
36 -27 27 -60 34 -162 39 -569 5 -372 5 -382 -15 -418 -12 -20 -21 -43 -21
-51 0 -8 -9 -15 -20 -15 -11 0 -20 -5 -20 -11 0 -6 8 -8 19 -4 16 5 20 -1 26
-35 4 -26 19 -53 40 -75 54 -58 107 -46 203 48 118 116 270 376 325 555 26 87
56 196 70 262 l13 65 75 6 c58 4 89 13 146 42 40 20 75 37 78 37 8 0 6 -61 -4
-94 -9 -29 -14 -49 -41 -156 -21 -84 -33 -126 -40 -145 -4 -11 -13 -36 -20
-55 -7 -19 -16 -45 -21 -57 -5 -13 -13 -33 -18 -45 -5 -13 -23 -53 -40 -90
-17 -37 -31 -73 -31 -81 0 -8 -7 -20 -15 -27 -9 -7 -25 -32 -35 -54 -10 -23
-29 -52 -42 -66 -13 -14 -29 -37 -37 -52 -8 -16 -18 -28 -23 -28 -4 0 -8 -6
-8 -13 0 -7 -13 -26 -30 -42 -16 -16 -30 -34 -30 -39 0 -6 -14 -25 -30 -43
-17 -18 -30 -36 -30 -40 0 -20 -328 -329 -364 -342 -5 -2 -19 -12 -30 -23 -11
-10 -24 -18 -29 -18 -4 0 -25 -16 -45 -35 -20 -19 -40 -35 -43 -35 -3 0 -19
-11 -35 -25 -16 -14 -35 -25 -41 -25 -7 0 -13 -4 -13 -10 0 -5 -7 -10 -15 -10
-9 0 -25 -9 -37 -20 -12 -11 -28 -20 -35 -20 -7 0 -13 -4 -13 -10 0 -5 -9 -10
-20 -10 -23 0 -113 -40 -118 -52 -2 -4 -12 -8 -22 -8 -11 0 -32 -5 -47 -11
-15 -6 -37 -15 -48 -20 -32 -13 -85 -21 -170 -26 -83 -5 -124 -23 -146 -64
-13 -25 10 -64 46 -81 30 -14 71 10 87 50 28 71 29 72 74 72 24 0 66 9 94 20
28 11 64 20 80 20 17 0 30 4 30 9 0 5 26 17 58 26 31 9 68 24 82 33 46 30 85
53 103 58 9 4 17 10 17 15 0 5 5 9 12 9 6 0 35 18 64 40 29 22 60 40 68 40 28
0 46 12 67 46 11 19 27 34 34 34 7 0 15 4 17 8 2 4 32 32 68 61 80 66 320 298
320 310 0 5 25 30 55 55 39 34 57 58 65 86 6 21 17 40 25 43 8 4 23 23 35 44
43 79 74 129 96 155 12 15 28 44 34 65 6 21 22 58 35 83 12 25 40 99 60 165
116 369 135 414 195 452 68 43 79 56 70 81 -11 27 -37 28 -70 2 -38 -29 -60
-26 -60 10 0 33 23 129 38 157 11 20 53 191 71 288 25 131 43 193 74 255 l32
65 0 504 1 503 27 24 c16 13 32 24 36 24 23 0 34 -84 49 -375 10 -183 16 -211
58 -244 49 -39 103 -19 124 45 20 59 -4 251 -57 459 -42 167 -74 250 -153 401
-39 74 -57 120 -53 131 4 10 35 54 71 97 35 44 71 94 79 110 60 116 94 360 73
521 -23 179 -101 394 -210 578 -54 93 -183 258 -246 319 -46 43 -145 118 -156
118 -23 0 -2 -34 43 -72 265 -221 440 -521 505 -866 20 -108 14 -327 -11 -412
-30 -97 -96 -223 -110 -209 -2 2 9 52 24 111 21 83 24 112 16 128 -14 27 -43
46 -83 55 -18 4 -40 18 -49 31 -38 59 -223 514 -223 550 0 8 11 19 24 26 21 9
32 6 70 -16 101 -59 106 -24 15 106 -78 110 -293 333 -376 389 -26 18 -77 55
-113 84 -36 28 -102 77 -147 110 -46 32 -83 63 -83 68 0 15 149 0 358 -34 197
-32 222 -30 222 16 0 23 -23 55 -39 55 -5 0 -35 22 -68 48 -70 55 -142 88
-258 116 -39 10 -52 18 -59 37 -5 14 -23 31 -40 39 -62 27 -96 54 -96 78 0 15
6 22 18 22 41 0 235 -31 252 -40 21 -11 50 10 50 36 0 45 -214 183 -375 243
-33 12 -206 32 -217 24 -5 -2 -8 0 -8 5 0 14 -194 24 -294 16 -47 -4 -84 -9
-82 -13 2 -3 -37 -6 -87 -6 -87 0 -95 -2 -137 -31 l-45 -31 -115 9 c-63 4
-124 7 -135 5 -11 -1 25 -6 80 -10 144 -11 157 -15 153 -40 -2 -16 -18 -28
-59 -44 -59 -24 -240 -55 -274 -48 -84 17 -88 16 -81 -10 11 -45 -25 -57 -193
-63 -156 -5 -297 7 -421 36 l-75 18 75 12 c117 20 226 45 215 49 -6 2 -10 18
-9 36 1 17 -1 22 -3 10 -2 -13 -14 -25 -26 -28 -135 -29 -206 -37 -379 -42
-129 -4 -198 -10 -201 -17 -3 -7 24 -12 82 -14 47 -1 111 -10 141 -19 30 -9
75 -19 100 -23 108 -17 308 -64 345 -82 l40 -19 -24 21 -23 20 96 0 c83 0 108
-4 174 -29 42 -16 103 -37 135 -47 31 -10 57 -22 57 -28 0 -22 -16 -34 -60
-46 -25 -6 -59 -18 -77 -26 -76 -35 -320 -22 -403 21 -17 9 -41 14 -53 12 -20
-4 -20 -4 3 -6 14 -1 36 -9 50 -17 l25 -15 -30 6 c-29 6 -29 6 -10 -10 19 -15
14 -16 -76 -12 -73 4 -118 13 -185 36 -48 17 -98 31 -110 31 -12 0 -24 5 -26
12 -9 25 -182 -10 -382 -77 -175 -59 -201 -65 -274 -65 -45 0 -82 4 -82 9 0 5
12 19 28 30 23 18 20 18 -23 -4 -27 -13 -69 -26 -92 -28 -36 -3 -54 -14 -117
-70 -58 -52 -73 -62 -70 -44 4 21 4 21 -6 -1 -5 -13 -8 -28 -5 -32 3 -5 -9
-20 -27 -35 -26 -22 -39 -26 -82 -24 -52 3 -80 15 -71 29 3 4 -2 21 -10 36
-18 35 -19 144 -2 191 7 18 32 59 56 93 38 52 82 92 257 235 22 18 59 64 82
102 23 37 49 79 58 93 13 19 10 18 -12 -6 -16 -17 -41 -51 -55 -76 -20 -34
-56 -66 -144 -129 -193 -138 -295 -266 -305 -384 l-5 -60 -18 26 c-23 34 -40
132 -33 194 l5 50 -14 -40 -14 -40 2 77 c1 43 -1 71 -5 64 -14 -25 -38 -130
-38 -168 0 -74 -38 -42 -41 35 l-2 32 -6 -35 c-6 -32 -8 -33 -17 -15 -32 57
-23 177 23 315 29 90 49 122 63 100 5 -8 12 -11 17 -7 4 5 1 12 -7 17 -35 22
198 297 312 369 67 42 243 142 377 215 39 21 121 72 183 112 61 41 113 72 116
70 2 -3 -5 -20 -16 -38 -39 -62 -166 -174 -285 -248 -197 -125 -288 -185 -384
-257 -93 -69 -301 -252 -302 -265 -2 -18 20 -3 104 74 117 105 223 184 299
221 34 16 106 57 161 92 209 130 325 176 870 340 50 15 117 39 150 53 33 13
73 28 89 33 l29 8 -24 -26 c-47 -51 -405 -214 -654 -297 -135 -45 -278 -119
-375 -193 -51 -39 -102 -67 -162 -89 -49 -17 -88 -29 -88 -25 0 4 8 18 17 31
l17 25 -22 -19 c-12 -11 -22 -29 -22 -40 0 -18 -2 -19 -11 -6 -9 13 -10 13 -6
0 6 -20 27 -17 127 20 l85 31 20 -25 c20 -25 21 -25 70 -12 115 31 381 150
450 201 67 51 149 74 371 105 129 17 601 23 652 7 24 -7 43 -17 42 -23 -1 -16
-47 -23 -208 -28 -240 -9 -466 -44 -617 -96 -72 -25 -37 -22 105 10 177 38
295 51 515 57 237 5 530 -8 546 -24 8 -8 -1 -15 -28 -24 -28 -9 -134 -13 -403
-14 -361 0 -366 -1 -485 -28 -189 -44 -224 -56 -265 -93 -47 -42 -233 -131
-360 -172 -52 -17 -142 -36 -200 -42 -58 -7 -107 -14 -109 -16 -10 -9 241 10
296 22 72 16 306 124 343 158 58 55 181 91 302 90 31 0 55 3 52 8 -3 4 -15 8
-27 9 -43 1 23 20 128 36 106 16 218 14 473 -9 129 -11 164 -22 100 -32 -141
-20 -206 -26 -293 -27 -147 -1 -176 -17 -35 -19 63 -1 176 -3 250 -5 74 -2
158 -1 185 3 l50 7 -45 6 c-36 5 -28 6 40 7 100 2 190 -7 190 -19 0 -5 -15 -9
-32 -10 -18 0 -42 -4 -53 -9 -14 -6 -4 -9 38 -9 42 -1 58 -5 55 -13 -5 -14
-100 -24 -332 -34 -85 -4 -133 -10 -125 -15 8 -5 28 -9 44 -10 17 -1 -14 -7
-69 -14 -54 -8 -101 -17 -105 -21 -3 -4 32 -4 79 -1 47 4 138 9 202 13 l117 7
-6 -23 c-5 -20 -4 -22 13 -15 10 5 93 12 184 17 90 4 178 13 195 19 17 7 97
13 184 14 139 2 155 4 164 21 5 10 11 20 13 22 1 2 12 -2 24 -8 22 -12 52 1
37 16 -4 4 -96 18 -204 31 -109 13 -239 29 -290 35 l-91 11 -7 54 c-11 87 0
127 40 146 46 22 95 7 217 -66 120 -71 195 -102 321 -132 56 -13 133 -33 170
-44 80 -23 127 -15 127 24 0 24 -30 69 -67 98 -13 10 -29 24 -36 31 -33 33
-263 178 -347 219 -187 91 -440 174 -730 241 -177 40 -183 41 -805 135 -253
39 -784 120 -1180 180 -848 130 -1784 272 -2010 306 -184 28 -185 28 -246 9z
m255 -272 c13 -8 33 -13 61 -15 11 -1 26 -6 33 -10 7 -5 22 -5 33 -2 15 5 19
4 15 -4 -4 -6 -2 -11 3 -11 6 0 11 5 11 10 0 11 36 6 83 -12 21 -8 26 -15 21
-31 -5 -15 -3 -19 9 -14 10 4 17 -2 21 -19 4 -14 11 -22 16 -19 6 3 10 2 10
-4 0 -5 -4 -13 -10 -16 -5 -3 -10 -14 -10 -23 0 -15 2 -15 10 -2 5 8 10 12 10
8 0 -3 3 -14 7 -23 5 -14 2 -16 -15 -10 -13 3 -22 2 -22 -4 0 -5 -19 -8 -45
-6 -42 4 -45 2 -45 -20 0 -13 -5 -27 -11 -30 -6 -4 -8 -14 -5 -22 3 -8 1 -11
-4 -8 -6 3 -10 -1 -10 -9 0 -11 -9 -16 -27 -16 -16 0 -41 -7 -57 -15 -32 -17
-49 -20 -26 -5 9 6 10 10 3 10 -13 0 -168 156 -194 197 -11 16 -16 42 -15 69
1 25 -2 44 -8 44 -22 1 30 24 57 26 16 2 31 5 34 8 5 5 46 -8 67 -22z m523
-118 c-3 -3 -12 -4 -19 -1 -8 3 -5 6 6 6 11 1 17 -2 13 -5z m19 -22 c6 -4 14
-14 17 -22 5 -13 6 -13 6 1 1 9 8 16 16 16 8 0 11 -5 7 -11 -4 -6 -7 -20 -7
-31 0 -12 -8 -21 -20 -23 -16 -3 -17 -1 -5 7 12 9 10 11 -10 11 -17 0 -21 3
-12 8 9 7 7 13 -9 28 -20 17 -22 17 -16 2 5 -13 1 -18 -12 -18 -10 0 -18 7
-18 15 0 8 4 12 9 9 4 -3 8 0 8 5 0 12 30 14 46 3z m121 -18 c-3 -3 -12 -4
-19 -1 -8 3 -5 6 6 6 11 1 17 -2 13 -5z m173 -70 c0 -16 -36 -19 -45 -4 -3 5
0 16 7 24 15 16 38 3 38 -20z m-555 -4 c8 -13 -25 -13 -45 0 -12 8 -9 10 12
10 15 0 30 -4 33 -10z m538 -27 c-7 -2 -19 -2 -25 0 -7 3 -2 5 12 5 14 0 19
-2 13 -5z m-472 -58 c24 -5 28 -11 26 -38 -2 -30 -4 -32 -40 -33 -21 0 -42 -6
-47 -13 -10 -17 -35 -8 -49 18 -8 15 -7 23 5 35 8 9 11 16 5 16 -6 0 -11 4
-11 8 0 10 74 15 111 7z m-244 -21 c-3 -3 -12 -4 -19 -1 -8 3 -5 6 6 6 11 1
17 -2 13 -5z m-2 -32 c-3 -3 -11 0 -18 7 -9 10 -8 11 6 5 10 -3 15 -9 12 -12z
m68 -44 c14 -11 14 -15 2 -32 -12 -15 -17 -17 -29 -7 -17 14 -17 51 -1 51 6 0
19 -6 28 -12z m4067 -188 c0 -5 -7 -10 -15 -10 -8 0 -15 5 -15 10 0 6 7 10 15
10 8 0 15 -4 15 -10z m-845 -19 c23 -12 33 -20 22 -20 -59 -3 -316 -35 -457
-57 -141 -23 -169 -25 -195 -14 -30 13 -29 13 75 47 135 44 245 61 395 62 98
0 127 -3 160 -18z m955 -51 c-8 -6 -24 -9 -35 -9 -15 0 -13 4 10 14 32 14 49
10 25 -5z m287 -31 c68 -13 123 -27 123 -31 0 -11 -25 -10 -96 2 -136 24 -263
53 -259 59 5 10 88 -1 232 -30z m-1902 -28 l29 -6 -51 -33 c-55 -35 -302 -148
-414 -188 -70 -25 -105 -29 -128 -15 -21 13 -4 31 87 89 195 125 361 178 477
153z m-855 -18 c0 -5 -35 -40 -79 -80 -85 -78 -235 -258 -282 -338 -16 -27
-40 -86 -53 -130 -26 -86 -49 -256 -40 -292 5 -20 2 -23 -19 -23 -22 0 -26 5
-30 38 l-4 37 -1 -42 c-1 -29 -6 -43 -16 -43 -40 0 -25 182 28 344 49 147 86
204 219 332 117 114 277 227 277 197z m2963 -406 c-2 -4 8 -5 23 -1 18 5 25 3
20 -4 -3 -6 -25 -9 -49 -7 -23 2 -103 0 -177 -5 -74 -5 -197 -12 -272 -15
-143 -6 -165 0 -110 29 22 13 74 15 299 13 149 -1 269 -6 266 -10z m-3442 -24
c-26 -49 -84 -268 -95 -358 -9 -76 -15 -100 -26 -100 -25 0 -19 188 9 303 20
83 28 99 67 140 43 45 65 52 45 15z m3526 11 c-3 -3 -12 -4 -19 -1 -8 3 -5 6
6 6 11 1 17 -2 13 -5z m104 -39 c19 -13 44 -25 55 -28 19 -4 -60 -1 -261 11
-88 6 -110 10 -110 22 0 12 22 16 120 20 137 6 147 5 196 -25z m-213 -72 c99
-7 118 -22 30 -24 l-63 -2 77 -8 c118 -12 188 -35 188 -59 0 -5 -94 -9 -210
-9 -217 -1 -347 -17 -520 -61 -127 -33 -337 -70 -393 -69 -59 0 -239 57 -245
77 -2 7 5 12 16 12 10 0 43 8 73 19 30 10 83 21 119 25 56 6 203 34 250 47 8
2 21 10 28 17 8 7 24 9 38 6 14 -4 24 -2 24 4 0 11 31 9 50 -3 6 -3 10 -1 10
4 0 6 5 11 11 11 5 0 8 -4 5 -9 -3 -4 22 -11 57 -14 84 -8 91 1 13 18 -15 3
-26 8 -23 11 9 9 257 23 322 18 33 -3 97 -7 143 -11z m-3538 -24 c-13 -23 -23
-91 -40 -258 -6 -57 -13 -108 -17 -114 -13 -22 -23 24 -24 118 0 55 -5 111
-10 125 -7 21 -8 20 -4 -9 6 -41 -21 -205 -40 -240 -14 -27 -13 -28 -30 25 -4
14 39 183 68 264 10 31 96 124 105 115 2 -2 -2 -13 -8 -26z m3445 -189 c39
-10 79 -22 90 -26 12 -4 17 -3 12 2 -5 5 -23 14 -40 21 l-32 11 30 1 c40 1
235 -33 334 -59 44 -11 89 -20 100 -20 11 0 25 -9 30 -19 9 -17 8 -18 -12 -14
-22 5 -22 5 -2 -11 19 -17 18 -17 -28 -13 -56 5 -52 -2 16 -27 99 -37 40 -46
-143 -21 -58 7 -168 16 -245 18 -144 5 -205 14 -335 48 -98 26 -233 70 -244
80 -4 4 18 13 50 19 72 15 195 8 249 -14 33 -13 37 -13 21 -1 -11 8 -23 15
-28 15 -4 0 -8 6 -8 14 0 30 63 28 185 -4z m-402 -77 c42 -15 76 -31 74 -37
-2 -6 -28 -19 -58 -30 -108 -37 -316 -19 -380 32 l-23 19 38 7 c21 4 52 5 69
1 29 -5 30 -5 12 7 -18 11 -16 13 25 25 61 17 150 8 243 -24z m-3232 -179 c6
-8 5 -13 -4 -17 -11 -4 -16 12 -20 71 -3 42 -3 81 1 86 4 6 8 -20 10 -59 2
-38 7 -74 13 -81z m418 28 c28 -14 38 -29 57 -82 13 -36 24 -75 24 -87 0 -12
5 -23 12 -25 7 -3 18 -24 25 -49 l13 -44 -6 45 c-6 53 -2 51 25 -15 l21 -50
-5 40 c-6 43 -3 39 33 -46 12 -28 33 -55 53 -68 l34 -23 -31 29 c-27 24 -71
109 -62 119 2 1 21 -24 43 -57 47 -71 57 -77 20 -11 -25 45 -17 39 33 -24 l22
-29 -16 33 c-19 42 -11 54 11 15 9 -15 14 -21 12 -13 -19 68 -19 67 -3 46 9
-11 16 -23 16 -28 0 -4 5 -8 11 -8 5 0 7 6 4 13 -4 6 5 -1 19 -18 14 -16 26
-27 27 -22 1 4 2 17 3 29 1 21 26 39 26 19 0 -6 5 -11 11 -11 5 0 8 4 5 8 -5
8 38 7 89 -3 24 -4 26 -3 10 4 -14 7 -15 10 -5 10 8 0 22 -3 30 -9 9 -6 17 -5
22 3 6 9 8 9 8 -1 0 -7 5 -10 12 -6 7 4 8 3 4 -4 -4 -7 -1 -12 6 -12 8 0 6 -5
-5 -11 -9 -6 -14 -15 -11 -21 4 -6 3 -8 -3 -5 -6 4 -28 0 -48 -9 -20 -8 -42
-13 -48 -11 -7 3 4 9 23 16 l35 11 -32 -5 c-18 -2 -33 0 -33 5 0 9 15 14 34
11 17 -3 46 11 40 20 -4 6 -11 6 -19 -1 -8 -7 -20 -8 -27 -4 -7 5 -34 9 -59 9
-37 0 -45 -3 -44 -17 1 -10 5 -21 10 -25 4 -5 5 -3 2 3 -4 8 3 8 27 0 36 -11
45 -36 12 -36 -15 0 -17 3 -8 9 11 6 10 10 -4 15 -9 3 -19 4 -22 1 -3 -3 1 -5
9 -5 11 0 11 -2 -1 -10 -8 -5 -19 -10 -25 -10 -5 0 -4 4 4 9 11 7 9 11 -8 20
-16 9 -21 9 -21 -1 0 -6 -7 -3 -15 8 -9 12 -14 14 -15 6 0 -7 -5 -10 -12 -6
-7 4 -8 3 -4 -5 4 -6 11 -9 16 -6 5 3 11 1 15 -5 4 -6 11 -8 16 -4 6 3 8 -5 5
-20 -3 -15 -1 -24 5 -21 5 4 9 2 9 -3 0 -6 -7 -13 -16 -16 -13 -5 -14 -9 -4
-21 10 -12 9 -15 -5 -15 -10 0 -16 -3 -12 -6 3 -4 14 -4 23 0 13 5 14 9 4 21
-7 8 -10 15 -7 15 3 0 13 3 23 7 12 4 15 3 10 -5 -5 -8 -1 -10 10 -5 11 4 15
3 11 -4 -5 -7 1 -10 15 -7 18 3 16 1 -7 -11 -37 -20 -3 -13 48 9 20 9 37 14
37 11 0 -2 -17 -13 -37 -24 -21 -11 -34 -20 -30 -21 4 0 22 7 40 17 18 9 43
18 57 20 149 21 289 10 440 -34 184 -54 196 -56 411 -57 168 -1 202 -3 180
-13 -38 -17 -17 -15 76 6 46 10 81 15 78 11 -3 -5 -20 -12 -38 -16 -28 -6 -29
-8 -12 -14 17 -7 15 -9 -15 -18 l-35 -10 30 -1 c17 0 66 11 110 25 44 14 106
26 137 27 32 1 58 5 58 10 0 4 14 7 32 7 47 0 25 -14 -77 -49 -64 -22 -77 -28
-45 -23 85 14 182 7 270 -18 85 -25 85 -25 45 -31 l-40 -6 47 -2 c54 -1 178
-53 178 -74 0 -14 -245 -107 -281 -107 -9 0 -54 -18 -100 -39 -46 -22 -106
-45 -132 -52 -72 -18 -52 -20 40 -4 74 13 117 27 184 60 15 7 40 11 55 9 24
-4 25 -3 9 5 -16 7 -7 12 50 29 178 52 244 64 355 64 48 0 51 1 22 8 -19 4
-64 4 -100 -1 -84 -11 -91 -10 -72 1 9 4 54 14 100 20 47 6 116 25 155 41 83
35 89 39 98 62 9 25 128 77 204 89 69 12 138 2 208 -28 29 -12 61 -17 115 -15
l75 3 175 -96 c96 -53 175 -102 175 -109 0 -19 -69 -20 -130 -2 -35 10 -101
16 -187 17 -146 2 -232 -11 -396 -64 l-93 -29 -72 34 c-68 33 -139 58 -162 56
-5 0 24 -12 65 -27 92 -34 152 -76 148 -106 -2 -17 -12 -22 -53 -27 l-50 -6
48 -1 c26 -1 47 -6 47 -11 0 -42 -129 -109 -263 -137 -38 -8 -78 -19 -88 -25
-11 -5 -54 -12 -97 -16 -71 -5 -86 -3 -163 25 -98 36 -270 83 -384 107 -105
21 -251 33 -517 41 -120 4 -218 10 -218 13 0 3 22 20 48 36 59 37 75 85 49
140 -20 41 -10 44 31 10 17 -14 45 -31 63 -37 29 -10 31 -12 13 -19 -14 -6
-15 -8 -3 -8 23 -1 30 10 16 27 -10 13 -9 15 6 9 10 -4 25 -7 33 -7 9 0 12 -5
8 -12 -5 -8 19 -10 97 -5 136 8 204 22 240 48 36 26 37 49 2 75 -50 36 -59 38
-24 5 31 -29 33 -34 19 -47 -10 -10 -52 -20 -117 -27 -101 -11 -102 -11 -214
22 -94 29 -136 35 -265 42 -85 5 -179 13 -210 19 -31 5 -69 10 -86 9 -58 -2
82 -39 189 -50 55 -6 114 -17 131 -25 60 -29 64 -89 9 -132 -38 -30 -110 -42
-258 -42 -73 0 -199 -5 -282 -10 -323 -21 -438 -24 -431 -12 14 22 139 46 292
56 45 3 187 10 315 16 289 13 335 23 341 79 2 19 -3 26 -26 32 -27 7 -233 -8
-406 -31 -41 -5 -140 -14 -220 -21 -80 -6 -212 -22 -295 -36 -82 -14 -158 -26
-168 -27 -10 -1 -22 -7 -25 -13 -4 -6 -31 -21 -61 -32 -29 -12 -83 -37 -120
-56 -74 -38 -122 -50 -256 -60 -123 -10 -247 -40 -317 -77 -164 -87 -248 -251
-235 -458 4 -52 15 -140 26 -195 11 -54 16 -105 12 -113 -12 -21 -161 234
-204 348 -57 154 -72 243 -71 420 0 128 4 169 23 235 49 178 157 346 303 473
71 62 366 267 373 260 2 -2 17 -51 33 -109 37 -138 68 -177 190 -239 48 -24
114 -61 148 -82 34 -21 76 -41 95 -44 26 -5 8 10 -76 60 -60 37 -117 71 -125
76 -8 5 -35 19 -60 30 -25 11 -64 37 -86 58 -35 31 -45 50 -64 115 -12 43 -25
101 -29 128 l-8 49 86 49 c75 43 136 68 206 85 35 8 139 -5 174 -22z m2324 11
c-7 -2 -21 -2 -30 0 -10 3 -4 5 12 5 17 0 24 -2 18 -5z m-90 -10 c-7 -2 -21
-2 -30 0 -10 3 -4 5 12 5 17 0 24 -2 18 -5z m-73 -13 c-14 -4 -20 -9 -15 -9
18 -3 -21 -20 -68 -30 -74 -17 -158 -52 -151 -63 4 -6 -1 -6 -14 1 -11 6 -29
11 -39 10 -17 0 -16 -1 1 -8 18 -7 18 -8 3 -14 -9 -3 -17 -2 -17 3 0 5 -7 6
-17 3 -31 -12 -4 14 33 32 89 42 228 83 284 83 l25 0 -25 -8z m-896 -23 c15
-24 -6 -37 -62 -37 -36 0 -43 3 -40 17 4 21 45 44 72 41 10 -2 24 -11 30 -21z
m82 -16 c-9 -14 -56 -14 -56 0 0 7 10 9 25 5 20 -5 23 -3 18 11 -5 14 -3 15 7
6 7 -6 9 -16 6 -22z m994 -1 c0 -5 -2 -10 -4 -10 -3 0 -8 5 -11 10 -3 6 -1 10
4 10 6 0 11 -4 11 -10z m68 3 c-10 -2 -28 -2 -40 0 -13 2 -5 4 17 4 22 1 32
-1 23 -4z m-153 -13 c-41 -7 -39 -13 5 -11 16 0 19 -2 10 -6 -8 -3 -23 -15
-32 -26 -11 -12 -25 -17 -38 -14 -27 7 -26 -2 2 -12 17 -6 8 -10 -43 -20 -35
-7 -72 -15 -83 -18 -12 -3 -16 -1 -12 6 4 6 2 11 -4 11 -6 0 -9 4 -6 8 3 5 -9
6 -27 4 l-32 -5 19 22 c11 11 38 26 60 33 82 22 152 36 186 36 l35 -1 -40 -7z
m-2155 -30 c6 -11 8 -20 6 -20 -3 0 -10 9 -16 20 -6 11 -8 20 -6 20 3 0 10 -9
16 -20z m1348 -91 c1 8 4 12 7 10 2 -3 0 -20 -5 -38 -8 -30 -8 -32 13 -25 12
3 36 18 52 33 18 16 14 9 -10 -18 -56 -60 -151 -125 -212 -145 -91 -30 -224
-5 -323 60 -30 20 -46 33 -35 29 126 -50 161 -57 250 -52 97 5 189 33 220 67
13 14 20 43 24 97 l6 78 6 -55 c3 -30 6 -49 7 -41z m850 54 c-10 -2 -28 -2
-40 0 -13 2 -5 4 17 4 22 1 32 -1 23 -4z m49 1 c-3 -3 -12 -4 -19 -1 -8 3 -5
6 6 6 11 1 17 -2 13 -5z m-438 -8 c-2 -2 -15 -9 -29 -15 -24 -11 -24 -11 -6 3
16 13 49 24 35 12z m74 -10 c8 5 8 2 0 -6 -7 -8 -23 -15 -35 -17 -21 -3 -21
-3 -2 18 10 11 20 16 22 10 2 -6 9 -8 15 -5z m-383 1 c0 -2 -11 -14 -25 -27
-14 -13 -25 -21 -25 -17 0 3 10 15 22 27 21 19 28 24 28 17z m717 -23 c-3 -3
-12 -4 -19 -1 -8 3 -5 6 6 6 11 1 17 -2 13 -5z m-477 -9 c0 -2 -10 -9 -22 -15
-22 -11 -22 -10 -4 4 21 17 26 19 26 11z m210 1 c0 -2 -7 -7 -16 -10 -8 -3
-12 -2 -9 4 6 10 25 14 25 6z m370 -6 c23 -7 23 -8 3 -9 -12 -1 -23 -7 -26
-13 -4 -10 -7 -10 -18 0 -11 10 -10 12 7 13 10 1 1 5 -21 9 l-40 7 35 1 c19 0
46 -4 60 -8z m-294 -25 c-13 -10 -14 -14 -3 -24 8 -6 18 -7 22 -3 5 4 5 1 1
-6 -4 -7 -12 -10 -17 -7 -5 4 -9 0 -10 -7 0 -7 -6 -2 -12 12 -6 14 -16 28 -21
31 -17 12 3 26 30 21 24 -4 25 -6 10 -17z m51 19 c-3 -3 -12 -4 -19 -1 -8 3
-5 6 6 6 11 1 17 -2 13 -5z m1107 -26 c-4 -6 -3 -8 4 -5 5 4 41 -11 79 -32 56
-32 68 -43 66 -63 -1 -12 1 -17 3 -10 9 19 20 15 82 -30 110 -82 52 -83 -83
-3 -102 62 -200 131 -170 121 20 -6 20 -6 1 9 -11 8 -24 15 -29 15 -5 0 -4 7
3 15 9 11 17 12 31 4 11 -5 16 -15 13 -21z m-2381 -55 c-7 -2 -19 -2 -25 0 -7
3 -2 5 12 5 14 0 19 -2 13 -5z m-412 -79 c-10 -7 -28 -10 -39 -7 -31 8 -20 18
22 19 32 1 34 -1 17 -12z m1912 -11 c-7 -2 -21 -2 -30 0 -10 3 -4 5 12 5 17 0
24 -2 18 -5z m-63 -13 c0 -5 -10 -14 -22 -20 -21 -10 -21 -10 -6 3 10 8 15 17
11 20 -3 4 -1 7 5 7 7 0 12 -4 12 -10z m-1770 -20 c-8 -5 -24 -10 -35 -10 -15
0 -17 -2 -6 -9 11 -7 9 -10 -8 -16 -11 -3 -25 -4 -31 0 -5 3 -18 1 -27 -5 -15
-9 -14 -10 6 -4 15 4 21 2 17 -4 -4 -6 3 -8 16 -5 20 4 21 3 6 -7 -19 -12 -74
6 -95 31 -10 12 -8 15 12 14 13 0 26 -3 30 -6 3 -4 27 2 53 12 53 20 88 26 62
9z m120 2 c-34 -3 -40 -6 -25 -12 13 -5 3 -7 -30 -6 -27 0 -59 -3 -70 -8 -11
-4 -7 0 9 10 20 13 48 19 95 20 45 0 52 -1 21 -4z m117 -28 c-3 -3 -12 -4 -19
-1 -8 3 -5 6 6 6 11 1 17 -2 13 -5z m2987 -50 c44 -7 125 -30 180 -51 91 -34
109 -45 176 -110 l75 -72 -45 10 c-60 13 -120 37 -145 57 -19 16 -19 16 -6 0
12 -17 11 -17 -20 -11 -19 3 -51 12 -72 19 -35 13 -115 23 -342 43 -147 13
-181 36 -137 91 38 46 155 55 336 24z m396 -280 c0 -2 -7 -4 -15 -4 -8 0 -15
4 -15 10 0 5 7 7 15 4 8 -4 15 -8 15 -10z m40 -14 c0 -5 -4 -10 -9 -10 -6 0
-13 5 -16 10 -3 6 1 10 9 10 9 0 16 -4 16 -10z m-3100 -50 c0 -22 -59 -30
-308 -45 -299 -18 -482 -39 -545 -64 -44 -17 -52 -13 -27 14 13 14 40 29 59
34 39 10 54 11 351 35 107 9 242 20 300 25 153 12 170 12 170 1z m-899 -99
c-12 -16 -21 -34 -21 -40 0 -6 -10 -11 -22 -12 -13 0 -53 -3 -90 -8 -38 -4
-68 -5 -68 -2 0 14 76 53 137 70 89 26 88 26 64 -8z m3645 -26 c100 -75 267
-245 363 -369 44 -56 87 -108 96 -116 9 -7 23 -27 32 -44 14 -27 14 -31 -3
-43 -10 -7 -21 -13 -25 -13 -4 0 -40 35 -80 78 -40 42 -174 178 -299 302 -124
124 -232 233 -239 243 -12 16 -9 17 34 17 43 0 56 -6 121 -55z m-481 1 c262
-107 513 -246 613 -341 65 -61 72 -71 57 -81 -14 -10 -30 -7 -88 18 -40 17
-99 40 -132 50 -33 11 -74 33 -92 49 -52 45 -130 92 -238 141 -104 48 -145 61
-145 49 0 -4 19 -14 43 -21 55 -16 161 -69 266 -134 l85 -51 -45 -7 c-24 -3
-90 -7 -146 -7 -60 -1 -103 -5 -105 -11 -5 -16 -78 -39 -124 -40 -68 0 -198
28 -312 69 -59 21 -123 42 -142 45 l-35 7 32 -30 33 -31 -33 -16 c-41 -22
-164 -29 -242 -15 -63 12 -206 78 -212 98 -3 7 14 14 44 19 51 8 66 9 176 12
38 1 66 6 63 11 -3 4 24 21 60 36 82 35 173 118 154 140 -14 17 -17 15 73 40
155 44 285 44 392 1z m-2245 -57 c3 -4 12 -4 20 1 8 5 37 7 65 5 27 -2 92 -7
142 -10 110 -7 220 -33 287 -69 56 -30 81 -33 72 -11 -8 21 22 19 91 -5 32
-11 65 -20 75 -20 10 0 18 -4 18 -10 0 -5 32 -44 70 -87 97 -106 173 -223 157
-240 -12 -11 -49 12 -141 88 -49 41 -93 73 -98 71 -5 -1 -7 2 -3 7 3 6 -24 41
-61 78 -70 72 -69 63 4 -24 24 -29 41 -53 38 -53 -4 0 -36 14 -73 30 -79 36
-193 68 -403 115 -85 18 -164 37 -175 41 -48 17 -1 -10 71 -41 78 -34 79 -35
38 -35 -36 0 -363 87 -396 105 -9 6 -10 5 -3 -3 19 -20 363 -122 413 -122 20
0 39 -16 29 -26 -7 -8 -259 25 -307 40 -25 8 -54 17 -65 20 -11 4 3 -5 30 -19
28 -14 43 -24 34 -21 -9 2 -66 12 -125 21 -60 9 -131 23 -158 32 -27 8 -61 17
-75 20 -41 7 -69 30 -92 74 -23 45 -19 60 11 41 11 -7 20 -8 20 -4 0 17 65 -1
83 -22 l18 -21 -10 22 c-16 33 -14 36 24 31 19 -2 35 -1 35 2 0 3 50 7 112 8
62 2 115 5 117 8 8 8 105 -7 111 -17z m-552 -29 c4 -13 3 -13 -11 -2 -13 11
-20 11 -39 -2 -13 -8 -52 -20 -88 -26 -186 -32 -418 -86 -520 -120 -133 -45
-133 -50 0 -16 52 13 142 29 200 35 58 7 125 16 150 21 25 5 93 14 153 21 92
10 107 14 107 30 0 30 17 30 30 0 13 -32 80 -101 80 -83 0 7 -5 12 -10 12 -12
0 -70 88 -70 104 0 6 11 -2 24 -19 49 -62 64 -75 107 -94 l44 -20 -290 1
c-343 2 -419 -6 -723 -78 -35 -9 -66 -13 -69 -11 -2 3 30 31 72 64 42 32 96
73 118 92 83 67 150 83 417 100 202 13 312 9 318 -9z m1429 -105 c66 -20 164
-112 207 -195 21 -39 39 -70 42 -70 6 0 -45 99 -68 133 -11 15 -15 27 -9 27 5
0 13 -5 17 -11 4 -6 34 -24 68 -39 33 -16 85 -49 115 -75 49 -42 99 -74 118
-76 5 -1 24 -30 44 -65 19 -35 38 -62 42 -58 3 3 10 -12 16 -34 6 -22 20 -51
31 -65 11 -14 20 -29 20 -33 0 -4 11 -24 23 -43 66 -101 107 -181 113 -221 14
-103 -28 -312 -71 -360 -16 -18 -18 -18 -50 1 -55 33 -250 281 -241 306 3 8 2
12 -3 9 -7 -5 -230 202 -392 364 -66 66 -112 132 -107 154 3 13 11 12 63 -5
38 -13 77 -19 110 -17 57 4 56 5 132 -102 49 -68 72 -96 58 -70 -4 8 -32 49
-60 90 -29 41 -56 86 -60 100 -19 60 -70 145 -143 237 -43 54 -86 104 -95 112
-9 7 -17 17 -17 22 0 10 22 6 97 -16z m-3407 -234 c0 -21 -31 -33 -66 -26 -33
6 -35 7 -18 20 21 16 84 20 84 6z m4000 -36 c14 -8 21 -14 17 -15 -5 0 -5 -5
-2 -10 4 -6 11 -8 16 -4 6 3 49 8 96 10 77 3 89 1 121 -21 41 -28 220 -202
233 -228 12 -22 3 -26 -76 -29 l-60 -3 73 -9 c80 -9 92 -20 76 -65 -14 -38
-84 -54 -178 -41 -93 13 -129 26 -153 53 -16 17 -193 290 -237 365 -10 17 42
15 74 -3z m874 -123 c79 -50 131 -77 155 -79 20 -2 43 -6 51 -10 8 -3 26 -7
40 -9 14 -2 36 -17 49 -34 43 -55 120 -183 116 -191 -9 -14 -115 27 -130 51
-4 6 -30 22 -58 36 -48 24 -76 44 -207 141 -61 46 -220 192 -220 203 0 14 78
-27 204 -108z m-1596 59 c17 -21 52 -82 78 -137 40 -81 49 -113 55 -174 3 -41
7 -64 7 -51 3 33 24 14 56 -51 27 -55 27 -58 -5 -168 -27 -87 -43 -110 -78
-110 -63 0 -66 3 -140 197 -27 70 -65 166 -85 214 -35 85 -66 205 -66 259 0
45 10 60 40 60 33 0 34 -3 75 -178 15 -62 29 -112 31 -109 2 2 -7 53 -20 113
-13 60 -27 125 -30 145 -6 35 -6 35 23 31 19 -2 40 -18 59 -41z m1273 -61 c42
-27 103 -61 135 -77 72 -33 187 -143 213 -205 42 -97 30 -157 -28 -143 -34 8
-124 77 -153 116 -13 17 -63 64 -113 104 -49 40 -114 99 -144 130 -30 31 -81
77 -113 102 -88 70 -80 80 40 46 58 -17 112 -41 163 -73z m-4729 -23 c79 -40
200 -95 269 -122 86 -33 125 -53 122 -62 -8 -20 -51 -16 -154 15 -168 51 -290
111 -387 189 -22 18 -23 53 -1 53 4 0 73 -33 151 -73z m3064 -176 c49 -1 63
-5 69 -18 10 -25 34 -423 36 -583 0 -101 3 -127 10 -105 10 32 5 243 -12 513
-6 90 -9 165 -7 167 1 2 21 -3 42 -10 40 -14 140 -111 152 -148 3 -9 10 -15
15 -12 5 4 9 3 10 -2 2 -21 9 -42 29 -93 52 -127 4 -307 -125 -472 -46 -59
-85 -78 -138 -64 -30 7 -70 79 -73 131 -1 22 -12 73 -23 113 -15 51 -20 92
-17 140 2 37 2 54 0 37 -3 -16 -7 -41 -10 -55 l-6 -25 -10 25 c-5 14 -36 110
-68 214 -55 177 -58 191 -44 217 17 33 38 29 52 -9 44 -119 55 -128 27 -22
-19 70 -19 67 8 64 12 -1 50 -3 83 -3z m2401 -43 c-3 -8 -6 -5 -6 6 -1 11 2
17 5 13 3 -3 4 -12 1 -19z m-695 -115 c22 -40 41 -73 43 -73 2 0 -11 33 -30
72 -18 40 -31 75 -29 77 2 3 21 -9 42 -26 50 -40 111 -128 124 -181 6 -23 13
-41 15 -38 2 2 -1 23 -7 46 -6 23 -9 44 -7 47 10 10 53 -22 104 -75 l52 -55
54 6 55 5 30 -71 c59 -142 85 -305 62 -388 -12 -45 -59 -71 -86 -48 -27 22
-98 120 -133 183 -83 149 -95 174 -107 221 -10 42 -13 45 -14 20 -2 -22 -4
-25 -7 -10 -6 22 -102 205 -109 205 -2 0 21 -50 51 -111 57 -115 66 -149 40
-149 -30 0 -199 237 -226 318 -8 25 -8 44 1 78 16 55 26 49 82 -53z m710 72
c3 -13 1 -22 -3 -19 -9 5 -13 44 -5 44 2 0 6 -11 8 -25z m-577 -115 c10 -11
13 -20 7 -20 -6 0 -16 9 -22 20 -6 11 -9 20 -7 20 2 0 12 -9 22 -20z m-2092
-17 c-3 -10 -15 -38 -25 -62 -15 -33 -17 -46 -8 -51 12 -7 11 -30 -4 -75 -4
-11 7 7 24 40 24 48 35 60 55 61 23 1 25 -2 25 -45 0 -66 -25 -163 -61 -234
-65 -132 -152 -257 -230 -332 -79 -75 -119 -96 -148 -78 -22 14 -21 168 2 243
16 53 26 67 97 135 l32 30 -7 -40 c-6 -37 -5 -36 13 13 11 29 31 65 44 80 29
31 129 201 165 279 23 51 39 72 26 36z m-83 -110 c-11 -21 -29 -48 -38 -61
l-18 -23 2 28 c1 15 3 34 3 41 1 7 6 10 11 7 6 -4 20 5 33 19 30 35 32 32 7
-11z m1885 -33 c80 -46 212 -191 258 -282 20 -42 37 -82 37 -90 0 -36 -50 -48
-120 -28 -71 20 -214 194 -259 316 -44 116 -18 142 84 84z m-1994 -123 c-10
-9 -11 -8 -5 6 3 10 9 15 12 12 3 -3 0 -11 -7 -18z m1052 -87 c15 -32 22 -72
25 -135 3 -80 0 -101 -27 -185 -89 -277 -297 -448 -433 -355 -61 41 -104 156
-124 328 l-7 57 38 -16 c47 -19 71 -14 112 26 l32 32 4 -84 3 -83 2 91 2 91
51 79 c28 44 56 84 61 89 14 13 4 -333 -12 -440 -7 -44 -20 -88 -28 -98 -15
-16 -14 -17 1 -11 10 3 19 16 22 28 16 67 35 237 35 308 0 46 3 120 7 166 l6
82 32 0 c38 0 125 55 140 88 9 21 11 21 24 5 7 -10 23 -38 34 -63z m-3051 44
c73 -8 216 -20 318 -25 102 -5 226 -13 275 -18 100 -10 399 -56 454 -70 20 -5
59 -12 86 -15 85 -11 105 -17 105 -31 0 -8 -3 -16 -7 -18 -5 -3 -66 1 -138 8
-71 7 -218 16 -325 20 -322 11 -711 34 -770 45 -82 15 -210 83 -210 111 0 13
59 11 212 -7z m1086 -10 c3 -25 -19 -34 -83 -34 -79 0 -86 31 -10 49 61 14 89
10 93 -15z m691 -190 c-8 -10 -44 -41 -80 -70 -36 -29 -72 -59 -80 -66 -8 -7
-40 -35 -72 -62 -32 -27 -104 -99 -160 -160 -111 -122 -162 -167 -113 -101
147 198 277 327 434 431 77 52 97 60 71 28z m676 -526 c14 -70 34 -145 46
-168 26 -49 21 -72 -28 -149 -80 -124 -132 -211 -125 -211 4 0 43 59 87 130
44 71 84 129 89 130 5 0 6 -35 3 -77 -10 -153 -97 -329 -224 -457 -73 -74
-128 -106 -211 -126 -48 -11 -56 -10 -99 11 -61 31 -78 57 -104 154 -19 73
-20 97 -14 270 7 230 11 255 36 255 43 0 127 50 194 116 63 62 80 88 171 264
56 107 107 211 115 230 14 34 14 31 27 -105 7 -77 24 -197 37 -267z m1514 266
l93 -18 -7 -81 c-11 -131 -84 -453 -127 -565 -78 -201 -222 -400 -328 -455
-74 -38 -152 -15 -179 53 -10 26 -65 393 -59 397 11 7 99 44 128 54 21 6 64
39 104 80 62 63 73 80 112 178 24 59 44 105 44 102 0 -15 -32 -226 -50 -324
-20 -113 -24 -142 -15 -133 6 6 61 328 75 443 11 87 39 210 62 268 8 22 16 28
32 24 12 -2 63 -13 115 -23z m-2227 -39 c2 -16 7 -30 13 -30 5 0 12 14 16 30
l5 30 8 -32 c9 -38 26 -41 83 -18 l36 15 -7 -31 c-3 -18 -27 -75 -52 -128
-110 -233 -237 -401 -304 -401 -69 0 -90 39 -90 172 0 95 8 117 66 179 26 26
62 71 81 99 59 88 68 63 27 -76 -45 -157 -84 -308 -75 -298 5 5 18 47 30 94
61 243 134 451 153 432 3 -4 8 -20 10 -37z m-161 -74 c-31 -44 -124 -125 -178
-156 -57 -33 -106 -70 -190 -143 -35 -29 -63 -51 -63 -47 0 13 176 197 220
231 25 18 69 54 99 78 45 37 90 61 124 65 5 1 -1 -12 -12 -28z m1545 -187 c12
-47 -5 -115 -101 -396 -52 -154 -95 -285 -94 -291 0 -10 168 467 197 562 7 22
10 18 26 -35 10 -32 37 -94 59 -137 l41 -77 -28 -57 c-59 -121 -222 -340 -301
-406 -61 -51 -103 -67 -178 -67 -50 0 -70 5 -91 21 -49 39 -76 195 -76 450 0
208 2 216 54 230 22 5 56 15 74 21 38 11 142 80 215 141 26 22 50 37 53 34 3
-3 -10 -52 -29 -109 -55 -163 -98 -314 -132 -464 -13 -60 -36 -149 -49 -199
-14 -49 -24 -91 -22 -93 3 -2 7 5 9 15 3 10 15 50 26 88 11 39 32 122 46 185
37 165 123 448 197 647 l19 53 40 -46 c21 -25 42 -56 45 -70z m-1896 22 c0 -2
-8 -10 -17 -17 -16 -13 -17 -12 -4 4 13 16 21 21 21 13z m4007 -558 c-14 -51
-33 -129 -43 -173 -15 -70 -19 -76 -25 -50 -3 17 -7 80 -8 141 l-1 112 48 40
c26 22 48 36 50 32 2 -5 -8 -51 -21 -102z m-3426 17 c-7 -29 -8 -60 -2 -92 6
-26 15 -79 21 -118 6 -38 23 -107 37 -153 27 -88 49 -116 119 -156 31 -17 38
-27 36 -46 -5 -49 -116 -199 -250 -341 -74 -79 -137 -109 -228 -109 -49 0 -59
4 -84 30 -15 16 -30 44 -34 61 -11 55 -7 239 9 405 23 239 10 210 136 305 113
85 166 144 215 240 31 61 44 48 25 -26z m2916 -181 c34 -65 88 -184 119 -264
57 -144 91 -199 113 -185 8 5 11 57 9 179 -3 151 -1 176 16 214 10 23 22 42
26 42 7 0 70 -338 70 -375 0 -28 -74 -97 -137 -129 -64 -32 -134 -35 -161 -8
-13 13 -27 65 -46 168 -16 82 -46 221 -67 308 -21 88 -36 163 -33 168 13 21
32 -5 91 -118z m-4100 -438 c-31 -94 -58 -183 -62 -198 -3 -16 -9 -28 -13 -28
-5 0 -57 -32 -115 -70 -59 -39 -120 -75 -135 -80 -23 -8 -24 -8 -8 3 118 76
201 136 212 152 7 11 33 81 58 156 25 75 60 170 78 210 55 123 47 47 -15 -145z
m1873 -177 c-11 -63 -31 -186 -45 -274 -28 -189 -36 -216 -74 -238 -16 -9 -51
-37 -79 -62 l-51 -46 3 39 c2 21 35 117 74 213 87 212 134 340 178 478 2 8 7
12 9 9 3 -3 -4 -56 -15 -119z m-1829 -946 c-32 -45 -111 -118 -111 -103 0 13
111 130 124 130 4 0 -2 -12 -13 -27z"/>
<path d="M1180 8406 c0 -2 7 -9 15 -16 9 -7 15 -8 15 -2 0 5 -7 12 -15 16 -8
3 -15 4 -15 2z"/>
<path d="M5785 7250 c27 -12 43 -12 25 0 -8 5 -22 9 -30 9 -10 0 -8 -3 5 -9z"/>
<path d="M5845 7230 c27 -12 43 -12 25 0 -8 5 -22 9 -30 9 -10 0 -8 -3 5 -9z"/>
<path d="M5905 7210 c11 -5 27 -9 35 -9 9 0 8 4 -5 9 -11 5 -27 9 -35 9 -9 0
-8 -4 5 -9z"/>
<path d="M5968 7193 c7 -3 16 -2 19 1 4 3 -2 6 -13 5 -11 0 -14 -3 -6 -6z"/>
<path d="M6058 7173 c7 -3 16 -2 19 1 4 3 -2 6 -13 5 -11 0 -14 -3 -6 -6z"/>
<path d="M2532 6835 c0 -16 2 -22 5 -12 2 9 2 23 0 30 -3 6 -5 -1 -5 -18z"/>
<path d="M2541 6774 c0 -11 3 -14 6 -6 3 7 2 16 -1 19 -3 4 -6 -2 -5 -13z"/>
<path d="M2114 6737 c-15 -13 -24 -29 -21 -35 4 -5 62 -47 129 -92 118 -79
124 -82 170 -78 43 5 51 2 68 -21 12 -16 5 7 -17 57 l-37 83 -109 54 c-60 30
-119 55 -132 55 -13 0 -36 -11 -51 -23z"/>
<path d="M2480 6736 c0 -2 8 -10 18 -17 15 -13 16 -12 3 4 -13 16 -21 21 -21
13z"/>
<path d="M2520 6733 c0 -6 5 -15 10 -18 6 -4 8 -10 5 -15 -3 -5 14 -20 38 -34
55 -33 76 -34 23 -2 -21 13 -47 37 -57 53 -10 15 -19 23 -19 16z"/>
<path d="M3006 6715 c-11 -8 -15 -15 -10 -15 6 0 19 7 30 15 10 8 15 14 9 14
-5 0 -19 -6 -29 -14z"/>
<path d="M2609 6681 c13 -12 28 -21 35 -21 12 0 -5 14 -39 31 -16 8 -15 6 4
-10z"/>
<path d="M2803 6653 c4 -6 2 -13 -5 -15 -8 -3 -6 -6 4 -10 17 -7 19 15 3 29
-4 4 -5 3 -2 -4z"/>
<path d="M2543 6639 c26 -15 158 -59 176 -59 9 0 -29 16 -84 35 -107 37 -121
41 -92 24z"/>
<path d="M2665 6625 c34 -16 72 -21 45 -6 -8 5 -28 11 -45 14 l-30 6 30 -14z"/>
<path d="M2730 6630 c8 -5 20 -10 25 -10 6 0 3 5 -5 10 -8 5 -19 10 -25 10 -5
0 -3 -5 5 -10z"/>
<path d="M2550 6600 c8 -5 20 -10 25 -10 6 0 3 5 -5 10 -8 5 -19 10 -25 10 -5
0 -3 -5 5 -10z"/>
<path d="M2738 6603 c7 -3 16 -2 19 1 4 3 -2 6 -13 5 -11 0 -14 -3 -6 -6z"/>
<path d="M2534 6576 c11 -9 27 -16 35 -15 14 0 14 1 1 6 -8 3 -24 10 -35 15
-20 9 -20 9 -1 -6z"/>
<path d="M2620 6574 c19 -9 62 -18 95 -19 33 -2 47 -2 30 1 -16 2 -50 9 -75
15 -25 5 -54 12 -65 14 -11 3 -4 -2 15 -11z"/>
<path d="M2763 6573 c9 -2 23 -2 30 0 6 3 -1 5 -18 5 -16 0 -22 -2 -12 -5z"/>
<path d="M2590 6556 c0 -2 7 -7 16 -10 8 -3 12 -2 9 4 -6 10 -25 14 -25 6z"/>
<path d="M2818 6553 c7 -3 16 -2 19 1 4 3 -2 6 -13 5 -11 0 -14 -3 -6 -6z"/>
<path d="M2881 6547 c-6 -8 -8 -17 -5 -20 7 -7 -44 -21 -131 -36 -32 -6 -63
-15 -68 -20 -4 -4 27 -2 70 6 51 9 115 13 183 9 95 -4 102 -3 75 9 -16 8 -43
14 -58 15 -16 0 -37 5 -48 11 -16 8 -18 13 -8 25 6 8 9 14 6 14 -2 0 -10 -6
-16 -13z"/>
<path d="M2795 6533 c-33 -9 -71 -17 -84 -20 -13 -2 -21 -6 -19 -8 2 -3 31 0
64 6 32 6 68 12 80 13 11 0 21 7 21 14 0 6 -1 11 -1 11 -1 -1 -28 -8 -61 -16z"/>
<path d="M2643 6533 c9 -2 25 -2 35 0 9 3 1 5 -18 5 -19 0 -27 -2 -17 -5z"/>
<path d="M2568 6513 c7 -3 16 -2 19 1 4 3 -2 6 -13 5 -11 0 -14 -3 -6 -6z"/>
<path d="M3515 6501 c29 -12 214 -35 222 -27 3 3 -8 6 -25 6 -17 0 -41 4 -54
9 -31 11 -169 24 -143 12z"/>
<path d="M2608 6474 c-27 -13 -48 -27 -48 -29 0 -3 21 5 48 18 26 14 54 27 62
30 13 5 13 5 0 6 -8 0 -36 -11 -62 -25z"/>
<path d="M3878 6473 c7 -3 16 -2 19 1 4 3 -2 6 -13 5 -11 0 -14 -3 -6 -6z"/>
<path d="M3928 6463 c7 -3 16 -2 19 1 4 3 -2 6 -13 5 -11 0 -14 -3 -6 -6z"/>
<path d="M2520 6395 c13 -14 25 -23 28 -21 4 5 -35 46 -45 46 -3 0 4 -11 17
-25z"/>
<path d="M5754 6411 c7 -11 46 -35 46 -28 0 3 -12 12 -26 22 -15 9 -23 12 -20
6z"/>
<path d="M5355 6395 c21 -9 145 -21 145 -13 0 4 -13 8 -29 8 -15 0 -50 2 -77
5 -27 3 -44 3 -39 0z"/>
<path d="M4268 6373 c7 -3 16 -2 19 1 4 3 -2 6 -13 5 -11 0 -14 -3 -6 -6z"/>
<path d="M4398 6373 c7 -3 16 -2 19 1 4 3 -2 6 -13 5 -11 0 -14 -3 -6 -6z"/>
<path d="M5600 6350 c8 -5 20 -10 25 -10 6 0 3 5 -5 10 -8 5 -19 10 -25 10 -5
0 -3 -5 5 -10z"/>
<path d="M5650 6330 c8 -5 20 -10 25 -10 6 0 3 5 -5 10 -8 5 -19 10 -25 10 -5
0 -3 -5 5 -10z"/>
<path d="M4058 6313 c7 -3 16 -2 19 1 4 3 -2 6 -13 5 -11 0 -14 -3 -6 -6z"/>
<path d="M5691 6316 c10 -9 69 -36 69 -32 0 6 -55 36 -66 36 -4 0 -5 -2 -3 -4z"/>
<path d="M4290 6254 c-17 -9 -20 -14 -9 -14 9 0 22 7 29 15 15 18 13 18 -20
-1z"/>
<path d="M3770 6209 c0 -5 5 -7 10 -4 6 3 10 8 10 11 0 2 -4 4 -10 4 -5 0 -10
-5 -10 -11z"/>
<path d="M4358 6173 c7 -3 16 -2 19 1 4 3 -2 6 -13 5 -11 0 -14 -3 -6 -6z"/>
<path d="M3878 6153 c7 -3 16 -2 19 1 4 3 -2 6 -13 5 -11 0 -14 -3 -6 -6z"/>
<path d="M4288 6153 c7 -3 16 -2 19 1 4 3 -2 6 -13 5 -11 0 -14 -3 -6 -6z"/>
<path d="M3828 6143 c7 -3 16 -2 19 1 4 3 -2 6 -13 5 -11 0 -14 -3 -6 -6z"/>
<path d="M4878 6143 c6 -2 18 -2 25 0 6 3 1 5 -13 5 -14 0 -19 -2 -12 -5z"/>
<path d="M3788 6133 c7 -3 16 -2 19 1 4 3 -2 6 -13 5 -11 0 -14 -3 -6 -6z"/>
<path d="M4968 6133 c6 -2 18 -2 25 0 6 3 1 5 -13 5 -14 0 -19 -2 -12 -5z"/>
<path d="M3738 6123 c6 -2 18 -2 25 0 6 3 1 5 -13 5 -14 0 -19 -2 -12 -5z"/>
<path d="M5020 6124 c35 -7 98 -9 94 -2 -3 5 -29 7 -57 7 -29 -1 -45 -3 -37
-5z"/>
<path d="M5158 6113 c18 -2 45 -2 60 0 15 2 0 4 -33 4 -33 0 -45 -2 -27 -4z"/>
<path d="M4248 6093 c7 -3 16 -2 19 1 4 3 -2 6 -13 5 -11 0 -14 -3 -6 -6z"/>
<path d="M4739 6065 c18 -8 38 -15 45 -15 6 1 -4 7 -23 15 -18 8 -38 15 -45
15 -6 -1 4 -7 23 -15z"/>
<path d="M4910 6010 c8 -5 20 -10 25 -10 6 0 3 5 -5 10 -8 5 -19 10 -25 10 -5
0 -3 -5 5 -10z"/>
<path d="M4618 6983 c6 -2 18 -2 25 0 6 3 1 5 -13 5 -14 0 -19 -2 -12 -5z"/>
<path d="M2938 6643 c7 -3 16 -2 19 1 4 3 -2 6 -13 5 -11 0 -14 -3 -6 -6z"/>
<path d="M6324 6476 c11 -9 24 -16 30 -16 12 0 7 5 -24 19 -24 11 -24 11 -6
-3z"/>
<path d="M5573 6063 c9 -2 23 -2 30 0 6 3 -1 5 -18 5 -16 0 -22 -2 -12 -5z"/>
<path d="M5680 6042 c36 -10 73 -22 83 -26 9 -5 17 -4 17 1 0 12 -58 30 -120
38 -39 5 -36 3 20 -13z"/>
<path d="M5345 5935 c23 -9 298 -55 302 -51 5 5 -68 22 -182 41 -82 14 -145
19 -120 10z"/>
<path d="M5294 5905 c22 -17 40 -20 32 -6 -3 5 -16 11 -28 14 -22 6 -22 5 -4
-8z"/>
<path d="M6325 5860 c10 -11 20 -20 23 -20 3 0 -3 9 -13 20 -10 11 -20 20 -23
20 -3 0 3 -9 13 -20z"/>
<path d="M5720 5856 c0 -6 156 -66 172 -66 7 0 -18 13 -57 29 -84 34 -115 44
-115 37z"/>
<path d="M3617 5999 c12 -12 24 -21 27 -18 2 2 -8 13 -22 23 l-27 19 22 -24z"/>
<path d="M3300 5985 c13 -14 26 -25 28 -25 3 0 -5 11 -18 25 -13 14 -26 25
-28 25 -3 0 5 -11 18 -25z"/>
<path d="M3347 5949 c7 -7 15 -10 18 -7 3 3 -2 9 -12 12 -14 6 -15 5 -6 -5z"/>
<path d="M4740 5620 c11 -22 23 -40 25 -40 3 0 -4 18 -15 40 -11 22 -23 40
-25 40 -3 0 4 -18 15 -40z"/>
<path d="M4847 5415 c20 -41 39 -73 41 -71 4 5 -66 146 -73 146 -3 0 12 -34
32 -75z"/>
<path d="M4640 5376 c0 -2 8 -10 18 -17 15 -13 16 -12 3 4 -13 16 -21 21 -21
13z"/>
<path d="M4890 5328 c0 -3 30 -68 66 -144 36 -77 84 -182 105 -234 48 -117 52
-104 5 17 -41 109 -176 385 -176 361z"/>
<path d="M4810 5270 c11 -22 23 -40 25 -40 3 0 -4 18 -15 40 -11 22 -23 40
-25 40 -3 0 4 -18 15 -40z"/>
<path d="M4850 5200 c6 -11 13 -20 16 -20 2 0 0 9 -6 20 -6 11 -13 20 -16 20
-2 0 0 -9 6 -20z"/>
<path d="M4887 5134 c4 -11 -1 -22 -13 -32 -15 -12 -16 -13 -2 -9 9 3 19 1 22
-6 2 -7 5 2 5 20 1 17 -3 35 -9 38 -6 4 -7 -1 -3 -11z"/>
<path d="M5106 5632 c5 -4 25 -21 44 -37 l35 -30 -34 38 c-19 20 -39 37 -45
37 -6 0 -6 -3 0 -8z"/>
<path d="M5240 5505 c19 -19 36 -35 39 -35 3 0 -10 16 -29 35 -19 19 -36 35
-39 35 -3 0 10 -16 29 -35z"/>
<path d="M5378 5373 c7 -3 16 -2 19 1 4 3 -2 6 -13 5 -11 0 -14 -3 -6 -6z"/>
<path d="M4316 5311 c7 -38 42 -142 43 -126 0 6 -10 44 -24 85 -14 41 -22 60
-19 41z"/>
<path d="M4462 5180 c0 -14 2 -19 5 -12 2 6 2 18 0 25 -3 6 -5 1 -5 -13z"/>
<path d="M4451 5114 c0 -11 3 -14 6 -6 3 7 2 16 -1 19 -3 4 -6 -2 -5 -13z"/>
<path d="M4441 5054 c0 -11 3 -14 6 -6 3 7 2 16 -1 19 -3 4 -6 -2 -5 -13z"/>
<path d="M4418 4994 c2 -19 8 -31 13 -28 14 8 11 51 -4 57 -9 3 -12 -5 -9 -29z"/>
<path d="M3871 5174 c0 -11 3 -14 6 -6 3 7 2 16 -1 19 -3 4 -6 -2 -5 -13z"/>
<path d="M3881 5125 c0 -16 6 -52 14 -80 l14 -50 -6 55 c-3 30 -10 66 -14 80
-7 24 -7 24 -8 -5z"/>
<path d="M3960 4653 c0 -14 39 -53 54 -53 5 0 2 6 -7 13 -9 6 -23 21 -31 32
-9 11 -16 15 -16 8z"/>
<path d="M3596 4785 c-9 -26 -7 -32 5 -12 6 10 9 21 6 23 -2 3 -7 -2 -11 -11z"/>
<path d="M5480 4965 c0 -2 9 -19 21 -37 12 -18 18 -24 14 -13 -4 11 -10 28
-12 38 -5 15 -23 25 -23 12z"/>
<path d="M5667 4669 c7 -7 15 -10 18 -7 3 3 -2 9 -12 12 -14 6 -15 5 -6 -5z"/>
<path d="M5708 4653 c7 -3 16 -2 19 1 4 3 -2 6 -13 5 -11 0 -14 -3 -6 -6z"/>
<path d="M4181 4325 c-1 -45 19 -159 31 -170 7 -7 9 -4 5 10 -6 19 -22 111
-31 165 -3 22 -3 21 -5 -5z"/>
<path d="M3831 4229 c-7 -22 -11 -43 -8 -45 2 -2 9 14 16 37 7 22 11 43 8 45
-2 2 -9 -14 -16 -37z"/>
<path d="M3792 4117 c-49 -120 -114 -306 -146 -415 -41 -142 -89 -358 -83
-375 2 -7 10 15 16 48 35 172 97 392 165 579 42 115 75 211 73 212 -2 2 -13
-20 -25 -49z"/>
<path d="M3815 3520 c-9 -16 -13 -30 -11 -30 3 0 12 14 21 30 9 17 13 30 11
30 -3 0 -12 -13 -21 -30z"/>
<path d="M3765 3430 c-9 -16 -13 -30 -11 -30 3 0 12 14 21 30 9 17 13 30 11
30 -3 0 -12 -13 -21 -30z"/>
<path d="M3550 3299 c-1 -8 -5 -33 -9 -56 -5 -24 -5 -43 -1 -43 8 0 22 101 15
109 -3 2 -5 -2 -5 -10z"/>
<path d="M5163 3565 c-7 -38 -10 -71 -8 -73 6 -6 27 107 23 125 -2 10 -9 -14
-15 -52z"/>
<path d="M4416 3335 c-3 -9 -6 -24 -5 -33 0 -9 5 -4 10 12 9 32 6 48 -5 21z"/>
<path d="M3233 3292 c-35 -97 -65 -190 -68 -207 -3 -16 26 60 65 170 38 110
69 203 68 207 -2 4 -31 -73 -65 -170z"/>
<path d="M3291 3070 c-13 -129 -25 -260 -27 -290 l-3 -55 9 55 c15 95 51 469
48 497 -2 16 -14 -78 -27 -207z"/>
<path d="M3141 3004 c0 -11 3 -14 6 -6 3 7 2 16 -1 19 -3 4 -6 -2 -5 -13z"/>
<path d="M3122 2938 c-14 -59 -26 -144 -18 -137 7 6 37 172 32 176 -2 2 -8
-16 -14 -39z"/>
<path d="M3092 2760 c0 -19 2 -27 5 -17 2 9 2 25 0 35 -3 9 -5 1 -5 -18z"/>
<path d="M3083 2675 c0 -27 2 -38 4 -22 2 15 2 37 0 50 -2 12 -4 0 -4 -28z"/>
<path d="M4978 7813 c7 -3 16 -2 19 1 4 3 -2 6 -13 5 -11 0 -14 -3 -6 -6z"/>
<path d="M3318 7773 c6 -2 18 -2 25 0 6 3 1 5 -13 5 -14 0 -19 -2 -12 -5z"/>
<path d="M3170 7710 c-9 -6 -10 -10 -3 -10 6 0 15 5 18 10 8 12 4 12 -15 0z"/>
<path d="M2736 7627 c-78 -80 -172 -215 -181 -262 -4 -24 -3 -23 10 8 22 57
99 162 184 250 41 42 71 77 66 77 -4 0 -40 -33 -79 -73z"/>
<path d="M4488 7683 c6 -2 18 -2 25 0 6 3 1 5 -13 5 -14 0 -19 -2 -12 -5z"/>
<path d="M4578 7683 c7 -3 16 -2 19 1 4 3 -2 6 -13 5 -11 0 -14 -3 -6 -6z"/>
<path d="M3748 7603 c7 -3 16 -2 19 1 4 3 -2 6 -13 5 -11 0 -14 -3 -6 -6z"/>
<path d="M3708 7593 c7 -3 16 -2 19 1 4 3 -2 6 -13 5 -11 0 -14 -3 -6 -6z"/>
<path d="M3660 7580 c-8 -5 -10 -10 -5 -10 6 0 17 5 25 10 8 5 11 10 5 10 -5
0 -17 -5 -25 -10z"/>
<path d="M3678 7293 c7 -3 16 -2 19 1 4 3 -2 6 -13 5 -11 0 -14 -3 -6 -6z"/>
<path d="M3618 7283 c7 -3 16 -2 19 1 4 3 -2 6 -13 5 -11 0 -14 -3 -6 -6z"/>
<path d="M3495 7250 c-3 -6 1 -7 9 -4 18 7 21 14 7 14 -6 0 -13 -4 -16 -10z"/>
<path d="M3918 7243 c7 -3 16 -2 19 1 4 3 -2 6 -13 5 -11 0 -14 -3 -6 -6z"/>
<path d="M3995 7219 c28 -11 77 -22 110 -24 l60 -4 -55 8 c-30 5 -75 16 -99
25 -62 23 -76 19 -16 -5z"/>
<path d="M4618 7193 c6 -2 18 -2 25 0 6 3 1 5 -13 5 -14 0 -19 -2 -12 -5z"/>
<path d="M2573 7100 c0 -36 2 -50 4 -32 2 17 2 47 0 65 -2 17 -4 3 -4 -33z"/>
<path d="M2702 7030 c0 -19 2 -27 5 -17 2 9 2 25 0 35 -3 9 -5 1 -5 -18z"/>
<path d="M2866 7035 c-9 -26 -7 -32 5 -12 6 10 9 21 6 23 -2 3 -7 -2 -11 -11z"/>
<path d="M6846 6092 c-10 -17 19 -79 43 -90 26 -12 81 -16 81 -6 0 3 -7 21
-16 39 -20 42 -93 81 -108 57z"/>
<path d="M7012 5260 c-24 -38 -15 -80 27 -121 43 -43 68 -48 101 -21 19 16 22
24 16 55 -15 79 -112 138 -144 87z"/>
<path d="M6925 4173 c12 -55 9 -671 -3 -788 -29 -285 -28 -304 14 -331 24 -17
26 -16 60 17 19 18 39 49 45 69 12 41 5 582 -9 700 -10 83 -44 248 -61 295
-29 79 -59 104 -46 38z"/>
<path d="M5535 1850 c-16 -16 -24 -30 -18 -30 10 0 34 24 47 48 12 20 2 14
-29 -18z"/>
<path d="M4015 1797 c-33 -24 -66 -51 -74 -60 -7 -10 -19 -17 -26 -17 -6 0
-20 -9 -30 -20 -10 -11 -23 -20 -30 -20 -6 0 -44 -33 -83 -74 -67 -69 -72 -76
-65 -107 8 -41 17 -49 66 -49 50 0 116 61 163 150 19 36 41 76 49 90 8 14 20
39 27 55 13 29 15 30 71 27 63 -4 78 9 57 47 -17 34 -59 26 -125 -22z"/>
<path d="M5300 1790 c-28 -28 -25 -57 9 -91 36 -35 51 -36 88 -5 30 25 41 66
18 66 -7 0 -27 11 -43 25 -36 30 -46 31 -72 5z"/>
<path d="M5460 1790 c0 -5 5 -10 10 -10 6 0 10 5 10 10 0 6 -4 10 -10 10 -5 0
-10 -4 -10 -10z"/>
<path d="M2980 1030 c0 -5 5 -10 10 -10 6 0 10 5 10 10 0 6 -4 10 -10 10 -5 0
-10 -4 -10 -10z"/>
<path d="M2915 994 c-42 -21 -85 -64 -85 -84 0 -25 35 -52 61 -48 33 5 60 48
63 101 2 26 1 47 -3 47 -3 0 -19 -7 -36 -16z"/>
</g>
</svg>
